<?xml version="1.0" encoding="UTF-8" standalone="no"?>
<svg
   xmlns:dc="http://purl.org/dc/elements/1.1/"
   xmlns:cc="http://creativecommons.org/ns#"
   xmlns:rdf="http://www.w3.org/1999/02/22-rdf-syntax-ns#"
   xmlns:svg="http://www.w3.org/2000/svg"
   xmlns="http://www.w3.org/2000/svg"
   viewBox="0 0 4414.6665 2053.3333"
   height="2053.3333"
   width="4414.6665"
   xml:space="preserve"
   id="svg2"
   version="1.1"><metadata
     id="metadata8"><rdf:RDF><cc:Work
         rdf:about=""><dc:format>image/svg+xml</dc:format><dc:type
           rdf:resource="http://purl.org/dc/dcmitype/StillImage" /></cc:Work></rdf:RDF></metadata><defs
     id="defs6" /><g
     transform="matrix(1.3333333,0,0,-1.3333333,0,2053.3333)"
     id="g10"><g
       transform="scale(0.1)"
       id="g12"><g
         transform="scale(2.03129)"
         id="g14"><path
           id="path16"
           style="fill:#ffffff;fill-opacity:1;fill-rule:nonzero;stroke:none"
           d="M 16300,7581.4 H 0 V 0 h 16300 v 7581.4" /></g><g
         transform="scale(1.99103)"
         id="g18"><path
           id="path20"
           style="fill:#e9f3fe;fill-opacity:1;fill-rule:nonzero;stroke:none"
           d="m 1650.32,1651.25 c 0,0 -1208.872,1834.76 214.07,2710.39 793.99,488.59 1878.04,-378.91 2683.13,932.5 468.51,763.17 2108.08,994.81 2927.96,-47.11 819.87,-1041.91 1524.68,-1036.65 2090.37,-843.92 648.75,221.03 933.75,886.31 1949.25,745.62 1173.7,-162.6 1016.6,-1148.34 1881.4,-976.69 1667.9,331 2903.5,-1560.13 1750.6,-2533.84 l -13496.78,13.05" /></g><g
         transform="scale(1.91122)"
         id="g22"><path
           id="path24"
           style="fill:#2e3552;fill-opacity:1;fill-rule:nonzero;stroke:none"
           d="M 16285.2,1691.9 H 1051.49 c -8.13,0 -14.78,6.65 -14.78,14.81 v 0 c 0,8.11 6.65,14.76 14.78,14.76 H 16285.2 c 8.2,0 14.8,-6.65 14.8,-14.76 v 0 c 0,-8.16 -6.6,-14.81 -14.8,-14.81" /></g><g
         transform="scale(1.44583)"
         id="g26"><path
           id="path28"
           style="fill:#ed975d;fill-opacity:1;fill-rule:nonzero;stroke:none"
           d="m 16063.2,5932.15 c 0,0 -518.3,-544.33 -659.8,-591.61 -225.5,-75.23 -396.4,-123.81 -491.2,-156 v 0 c 0,0 -116.9,13.54 -155.3,-16.44 -38.3,-29.99 -49.1,-47.15 -33.5,-60.17 15.6,-13.01 161.7,-3.78 188.8,0 27.1,3.78 108.7,10.89 108.7,10.89 l -3.1,1.87 c 157.6,7.69 369.8,37.66 458.2,60.6 145.8,37.77 602.6,399.75 661.5,478.58 162.5,217.1 29.8,323.84 -74.3,272.28" /></g><g
         transform="scale(1.47285)"
         id="g30"><path
           id="path32"
           style="fill:#ffb27d;fill-opacity:1;fill-rule:nonzero;stroke:none"
           d="m 16300,5879.31 c -25.7,5.18 -70.3,99.08 -69.5,251.11 l -11.6,-2.28 -195.8,-38.39 c 0,0 4.3,-61.6 4.4,-119.62 0,-29.66 -1.1,-58.31 -4.6,-77.42 -37.7,-1.4 -63.3,-3.1 -63.3,-3.1 0,0 -152.8,-135.75 -165.1,-208.17 -12.5,-72.41 279,-70.64 377.9,-61.82 98.9,8.84 127.6,259.69 127.6,259.69 0,0 0,0 0,0" /></g><g
         transform="scale(1.46552)"
         id="g34"><path
           id="path36"
           style="fill:#ed975d;fill-opacity:1;fill-rule:nonzero;stroke:none"
           d="m 16103.2,6120.21 c 0,0 4.4,-61.91 4.4,-120.22 110.1,2.9 168.5,103.2 192.4,158.81 l -196.8,-38.59" /></g><g
         transform="scale(1.49418)"
         id="g38"><path
           id="path40"
           style="fill:#2c3a64;fill-opacity:1;fill-rule:nonzero;stroke:none"
           d="m 16250.4,6580 c -42.8,26.27 -111.2,-4.91 -111.2,-4.91 23.7,33.17 109.9,22.16 109.9,22.16 -172.2,36.97 -207.9,-73.46 -210.7,-83.18 -108.4,98.17 -274.1,-70.86 -314.9,-115.98 -40.4,-35.03 -79.6,-103.71 -18.4,-256.35 l 18.4,-59.65 232.7,-16.78 43.4,-57.82 c 0,0 26.3,60.32 60.7,41.4 53.8,-29.48 158,89.22 125.1,245.7 -3.6,16.92 -7.9,32.34 -12.7,46.54 11.2,-4.91 23.8,-8.88 35.7,-8.9 31.3,-0.05 78.8,79.71 85.2,106.52 6.4,26.82 -0.4,114.98 -43.2,141.25" /></g><g
         transform="scale(1.47107)"
         id="g42"><path
           id="path44"
           style="fill:#ffb27d;fill-opacity:1;fill-rule:nonzero;stroke:none"
           d="m 16005.8,6042.2 c 0,0 259.4,-4.76 259.9,156.84 0.4,161.6 34.3,269.81 -131.4,279.68 -165.6,9.87 -197.9,-51.69 -211.2,-105.59 -13.3,-53.9 15.3,-325.53 82.7,-330.93" /></g><g
         transform="scale(1.47577)"
         id="g46"><path
           id="path48"
           style="fill:#2c3a64;fill-opacity:1;fill-rule:nonzero;stroke:none"
           d="m 16144.2,6244.97 c 108.6,-28.13 155.8,0.9 155.8,0.9 0,0 -83.2,66.35 -100.3,181.97 0,0 -166,98.73 -232.4,37.68 -16.9,14.56 -47.1,25.13 -87.1,-23.17 -60.1,-72.55 -7,-201.1 -7,-201.1 24.6,-2.91 30.6,81.52 43.5,122.51 9.6,30.17 40.8,60.92 56.6,75.06 5,-18.62 56.7,-199.62 186.6,-259.96 0,0 -59.7,53.22 -103.6,127.01 25.2,-28.65 54.7,-52.29 87.9,-60.9" /></g><g
         transform="scale(1.4445)"
         id="g50"><path
           id="path52"
           style="fill:#2b478b;fill-opacity:1;fill-rule:nonzero;stroke:none"
           d="m 16300,4431.14 c -75.2,-170.94 -170.8,-393.49 -254.6,-589.96 -17.3,-40.38 -34,-79.67 -50,-117.13 -84.3,-197.85 -146.8,-346.28 -146.8,-346.28 5.2,-466.94 -649,-1035.51 -649,-1035.51 l -74.1,51.78 c 0,0 353.7,484.46 402.1,1040.15 36.9,424.5 137,798.57 221.3,1052.81 46.2,139.14 87.6,242.4 111.4,298.44 17.9,6.01 37.1,9.88 57.5,11.82 l 362.5,-354.31 19.7,-11.81" /></g><g
         transform="scale(1.4445)"
         id="g54"><path
           id="path56"
           style="fill:#233862;fill-opacity:1;fill-rule:nonzero;stroke:none"
           d="m 16300,4431.14 c -75.2,-170.94 -170.8,-393.49 -254.6,-589.96 L 15748.9,4487 c 46.2,139.14 87.6,242.4 111.4,298.44 17.9,6.01 37.1,9.88 57.5,11.82 l 362.5,-354.31 19.7,-11.81" /></g><g
         transform="scale(1.51812)"
         id="g58"><path
           id="path60"
           style="fill:#2b478b;fill-opacity:1;fill-rule:nonzero;stroke:none"
           d="m 16204.1,2296.27 -76.1,-27.08 c 0,0 -283,811.27 -400.2,936.16 -226.4,241.29 -559.7,1293.53 -559.7,1293.53 l 513.5,146.18 c 66.9,-64.77 197.1,-207.56 209.7,-496.92 14,-318.61 45.2,-688.52 50.9,-760.45 0,-0.07 0,-0.14 0,-0.2 0.4,-5.54 3.4,-10.35 7.2,-14.49 350.6,-390.23 254.7,-1076.73 254.7,-1076.73" /></g><g
         transform="scale(1.49445)"
         id="g62"><path
           id="path64"
           style="fill:#699dee;fill-opacity:1;fill-rule:nonzero;stroke:none"
           d="m 16255,5512.56 c -29.1,-82.37 -68.3,-152.87 -68.3,-152.87 0,0 -254.6,-410.77 -246,-450.24 8.5,-39.44 137.7,-326.79 109.5,-344.97 -149.8,-96.57 -752.3,-55.84 -741.2,19.25 11.2,75.06 94.7,218.98 99.4,381.42 2.4,88.14 -8.6,198.93 -5.7,302.91 0,3.73 0.2,7.45 0.3,11.17 -28.5,26.61 -49.5,53.03 -64.9,77.89 -49.8,80.48 -41.3,144.47 -41.3,144.47 0,0 167.3,206.27 231.7,252.4 64.6,46.09 200.5,50.51 200.5,50.51 0,0 -104.8,-133.78 -107.1,-180.19 -2.4,-46.44 275.4,-62.67 318.8,-32.52 43.3,30.19 123.8,202.55 123.8,202.55 0,0 173.6,-6.76 208.4,-71.4 27.1,-50.34 8.8,-135.28 -17.9,-210.38" /></g><g
         transform="scale(1.42132)"
         id="g66"><path
           id="path68"
           style="fill:#4a75cb;fill-opacity:1;fill-rule:nonzero;stroke:none"
           d="m 16195,5613.52 c 2.5,-51.24 0.2,-74.41 0.2,-74.41 0,3.92 0.2,7.83 0.3,11.75 -30,27.97 -52,55.75 -68.2,81.89 -3.3,25.94 5.8,55.38 39.7,85.68 104.9,93.97 133,109.82 133,109.82 0,0 -107.4,-163.48 -105,-214.73" /></g><g
         transform="scale(1.49033)"
         id="g70"><path
           id="path72"
           style="fill:#4a75cb;fill-opacity:1;fill-rule:nonzero;stroke:none"
           d="m 16231.5,5374.52 c 0,0 -255.3,-411.91 -246.7,-451.49 -244.7,467.37 167.8,579.96 315.2,604.78 -29.3,-82.6 -68.5,-153.29 -68.5,-153.29" /></g><g
         transform="scale(1.36001)"
         id="g74"><path
           id="path76"
           style="fill:#233862;fill-opacity:1;fill-rule:nonzero;stroke:none"
           d="m 16297.1,2439.47 c 0,0 -4.9,12.21 -10.8,29.42 -9.7,28.38 -21.9,70.36 -18.2,93.01 2.6,16.03 -0.7,29.04 -5.5,38.53 -5.8,11.99 -55,-31.18 -79.4,-10.74 -47.1,39.64 -58,42.95 -60.3,43.02 l -0.5,-0.15 c 0,0 -103.4,-65.59 -130.3,-90.07 -48,-43.6 -100.4,-50.59 -127,-58.38 -10.8,-3.09 -19.5,-11.03 -23.5,-21.47 -5.9,-15.37 -11.9,-36.33 -5.6,-45.3 l 251,0.52 c 0,0 0.2,0.22 0.6,0.59 2.8,2.94 17,15.58 47.8,11.61 20.3,-2.57 34.9,-8.31 54.7,-11.4 l 59.1,0.15 c 50.8,6.47 47.9,20.66 47.9,20.66" /></g><g
         transform="scale(1.51388)"
         id="g78"><path
           id="path80"
           style="fill:#233862;fill-opacity:1;fill-rule:nonzero;stroke:none"
           d="m 16297.4,2190.6 c 0,0 -4.4,10.97 -9.6,26.49 -8.7,25.5 -19.6,63.28 -16.2,83.56 2.4,14.4 -0.7,26.09 -4.8,34.61 -5.2,10.77 -12.2,16.58 -12.2,16.58 0,0 -37.3,-44.45 -59.2,-26.02 -42.3,35.73 -52,38.71 -54.1,38.71 l -0.4,-0.07 c 0,0 -93,-58.79 -117.3,-80.72 -43.2,-39.04 -90.3,-45.25 -114.2,-52.12 -9.7,-2.84 -17.5,-9.97 -21.1,-19.29 -5.3,-13.8 -10.8,-32.63 -5.1,-40.69 h 225.4 c 0,0 0.2,0.2 0.6,0.53 2.5,2.58 15.2,13.94 42.9,10.31 18.2,-2.38 31.4,-7.53 49.1,-10.31 h 53.1 c 45.7,5.68 43.1,18.43 43.1,18.43" /></g><path
         id="path82"
         style="fill:#ee9849;fill-opacity:1;fill-rule:nonzero;stroke:none"
         d="m 13151.6,7337.15 -47.2,-22.92 c -2,2.89 -3.2,4.91 -3.7,5.85 0,0.53 47.9,16.13 50.9,17.07" /><path
         id="path84"
         style="fill:#9b3d38;fill-opacity:1;fill-rule:nonzero;stroke:none"
         d="m 12012.4,9954.26 c 0,0 -143.7,119.84 -310.6,100.54 -167,-19.4 -355.5,-89.7 -379.4,-424.62 -23.9,-334.93 96.5,-478.7 -90.3,-609.82 -186.9,-131.12 -150,-261.87 -107.5,-390.53 0,0 80.7,202.28 183,182.53 0,0 -134.5,-170.2 -120.6,-290.2 13.9,-120 141.8,-229.87 209.1,-270.29 0,0 59.3,71.34 168,47.71 219.5,-47.71 510,298.1 481.1,441.78 -29,143.69 -32.8,1212.9 -32.8,1212.9" /><path
         id="path86"
         style="fill:#ee9849;fill-opacity:1;fill-rule:nonzero;stroke:none"
         d="m 14002.8,3491.9 -144.4,-9 c 0,0 -158.5,378.3 -272.5,796.2 -57,208.8 -102.9,427.6 -112.3,613.9 -7.8,156.5 -13.3,276.6 -13.4,276.7 -5.7,7 -39.1,39.6 -90.6,95.9 -17.1,18.9 -36.4,40.4 -57.3,64.5 -118.4,136.38 -290.2,355.47 -449.2,642.87 -0.2,0.27 -0.4,0.6 -0.6,0.95 -77.4,140.1 -151.9,296.48 -215.7,467.44 -0.3,0.88 -0.7,1.41 -0.9,1.95 -0.4,0.47 -140.2,321.55 -170,499.56 0,0.14 -0.1,0.27 -0.1,0.34 -1.9,11.69 -3.3,22.85 -4.3,33.2 -0.9,10.62 -1.2,20.5 -1,29.36 l 5.6,2.7 628.3,305.76 c 25.8,-36.9 170.1,-227.41 292.8,-499.17 9.4,-20.63 18.8,-41.73 28.4,-63.1 7.1,-15.72 14.2,-31.72 21.4,-47.85 1.7,-3.9 3.5,-7.86 5.2,-11.82 221.4,-502.12 448.1,-1231.85 497.5,-1534.19 19.1,-116.7 31.6,-443 39.6,-776.4 10.7,-438.9 13.5,-889.8 13.5,-889.8" /><path
         id="path88"
         style="fill:#e58638;fill-opacity:1;fill-rule:nonzero;stroke:none"
         d="m 13452.2,6692.29 -82.6,-1426.69 c -17.1,18.9 -36.4,40.4 -57.3,64.5 -118.4,136.38 -290.2,355.47 -449.2,642.87 -0.2,0.27 -0.4,0.6 -0.6,0.95 -77.4,146.09 -151.5,307.51 -215.7,482.9 -0.3,1.01 -0.7,1.61 -1,2.21 -0.3,0.54 -121.1,283.32 -169.9,483.84 0,0.14 -0.1,0.27 -0.1,0.34 -1.9,11.69 -3.3,22.85 -4.3,33.2 -0.9,10.62 -1.2,20.5 -1,29.36 l 5.6,2.7 c 0,0 620.9,301.62 652.6,311.61 6.5,-13.11 136.1,-211.76 268.5,-505.02 9.4,-20.63 18.8,-41.73 28.4,-63.1 7.1,-15.72 14.2,-31.72 21.4,-47.85 1.7,-3.9 3.5,-7.86 5.2,-11.82" /><path
         id="path90"
         style="fill:#ee9849;fill-opacity:1;fill-rule:nonzero;stroke:none"
         d="m 13171.2,5038.6 c -47.6,-129.2 -214.9,-511.1 -369.5,-859 -152.9,-344.3 -293.5,-655.2 -293.5,-655.2 l -142.8,-14.6 c 0,0 -17.6,348.9 11.5,726.1 25.2,326.1 85.1,673.4 221.5,834.8 5.7,6.8 4.2,17.3 1.4,25.8 l -0.1,0.3 c -19,57.3 -95.7,292.5 -173.2,589.77 -18.9,72.1 -37.7,147.78 -55.9,225.59 -26.3,112.69 -51,229.69 -71.6,345.81 -0.4,1.95 -0.8,3.83 -1.1,5.65 -9.8,26.07 -25.5,70.02 -43.1,128.42 -24,79.77 -51.4,186.48 -72.5,311.67 -0.5,3.69 -1.2,7.39 -1.8,11.15 -45.3,277.14 -11.7,440.64 -11.7,440.64 0,0 518.5,68.07 684.3,125.12 165.9,57.12 267.3,45.9 267.3,45.9 0,0 157.8,-1998.02 50.8,-2287.92" /><path
         id="path92"
         style="fill:#ed975d;fill-opacity:1;fill-rule:nonzero;stroke:none"
         d="m 14215.1,7476 c -10.9,18.11 -100.3,107.19 -300.1,146.89 0,0 -12.2,1.7 -72.7,45.12 0,0 0,-0.04 0,-0.06 -184.8,138.24 -378.8,291.06 -603.7,435.86 -119.4,76.91 -298.4,253.46 -484.5,429.94 -94.2,89.29 -190.3,178.65 -281.3,255.06 -49,41.12 -436.5,-206.62 -402,-252.14 182.8,-241.1 649.3,-515.21 910.9,-685.81 229.5,-149.73 570.5,-270.95 733.3,-324.15 -0.2,-0.07 -0.3,-0.15 -0.4,-0.21 0,0 86.7,-27.01 92.7,-31.6 6,-4.58 107.2,-93.28 162,-122.73 54.8,-29.46 136.3,-19.03 225.1,8.39 58.8,18.14 38.7,65.51 20.7,95.44" /><path
         id="path94"
         style="fill:#233862;fill-opacity:1;fill-rule:nonzero;stroke:none"
         d="m 12754.1,8533.75 c -20.7,-84.34 -81.7,-238.55 -252.1,-252.01 -218.4,-17.19 -340.1,497.65 -107.1,572.55 30.5,-25.73 28.9,-24.36 77.9,-65.48 91,-76.41 187.1,-165.77 281.3,-255.06" /><path
         id="path96"
         style="fill:#a9453d;fill-opacity:1;fill-rule:nonzero;stroke:none"
         d="m 12205.4,9928.82 c -80,65.53 -420.5,321.88 -549.2,56.58 0,0 -131.4,-79.51 -145.8,-325.89 -14.7,-251.39 207.1,-433.71 283.9,-375.22 49.2,37.51 112.5,-54.84 112.5,-54.84 l 63.5,137.78 309.1,69.52 14.7,97.21 c 59.6,252.02 -17.7,349.74 -88.7,394.86" /><path
         id="path98"
         style="fill:#2b478b;fill-opacity:1;fill-rule:nonzero;stroke:none"
         d="m 12152,6767.91 c -138.3,329.21 -669.5,1597.13 -275.8,2173.37 3.4,1.69 6.7,3.15 10,4.64 147.6,64.98 401.8,28.36 471.1,-29.42 341.5,-284.98 397.6,-465.5 433.2,-704.14 36.9,-247.22 83.2,-502.33 278.1,-772.19 24.6,-34.14 52.2,-68.49 83.1,-102.95 248.1,-276.67 -925.5,-745.72 -999.7,-569.31" /><path
         id="path100"
         style="fill:#ffb27d;fill-opacity:1;fill-rule:nonzero;stroke:none"
         d="m 12283.4,8944.64 c 13.4,-18.48 106.1,-74.48 -115.7,-74.48 -173,0 -298.4,60.72 -291.5,71.12 22.6,33.9 48.1,121.63 8,354.21 l 18.4,-0.51 309.6,-8.8 c 0,0 9,-95.42 23.8,-184.27 12.4,-74.6 36.1,-141.81 47.4,-157.27" /><path
         id="path102"
         style="fill:#ed975d;fill-opacity:1;fill-rule:nonzero;stroke:none"
         d="m 12212.2,9286.18 c 0,0 9,-95.42 23.8,-184.27 -168.4,-23.53 -282.8,114.44 -333.4,193.07 l 309.6,-8.8" /><path
         id="path104"
         style="fill:#ffb27d;fill-opacity:1;fill-rule:nonzero;stroke:none"
         d="m 12270.2,9205.58 c 0,0 -396.6,-67.09 -434.6,180.54 -38,247.64 -114.7,405.76 136.9,459.07 251.6,53.31 315.4,-33.63 348.2,-113.2 32.8,-79.58 51.7,-502.58 -50.5,-526.41" /><path
         id="path106"
         style="fill:#a9453d;fill-opacity:1;fill-rule:nonzero;stroke:none"
         d="m 12287.9,9867.9 c -72.7,65.03 -116.6,41.81 -139.2,15.5 -246.1,80.4 -348.8,-111.71 -348.8,-111.71 0.4,-181.76 -112.2,-303.08 -112.2,-303.08 0,0 79.3,-33.74 239.8,34.66 49,20.88 89,64 121,113.82 -50.3,-123.55 -129.8,-219.12 -129.8,-219.12 185.5,122.63 223.4,412.4 226.9,442.96 27.6,-18.09 82.6,-58.17 104.3,-102.36 29.4,-60.04 58.1,-188.52 95.2,-178.36 0,0 52,210 -57.2,307.69" /><path
         id="path108"
         style="fill:#233862;fill-opacity:1;fill-rule:nonzero;stroke:none"
         d="m 13068.6,7440.17 c -939.8,238.69 -1226.8,1056.98 -1226.8,1056.98 0,0 879,-238.57 989.3,-325.93 36.9,-247.23 48.1,-461.1 237.5,-731.05" /><path
         id="path110"
         style="fill:#ffb27d;fill-opacity:1;fill-rule:nonzero;stroke:none"
         d="m 12801.7,4179.6 c -152.9,-344.3 -293.5,-655.2 -293.5,-655.2 l -142.8,-14.6 c 0,0 -17.6,348.9 11.5,726.1 76.2,-39 211.1,-79.8 424.8,-56.3" /><path
         id="path112"
         style="fill:#ffb27d;fill-opacity:1;fill-rule:nonzero;stroke:none"
         d="m 14002.8,3491.9 -144.4,-9 c 0,0 -158.5,378.3 -272.5,796.2 98.5,-4.8 296.9,0 403.4,102.6 10.7,-438.9 13.5,-889.8 13.5,-889.8" /><path
         id="path114"
         style="fill:#2b478b;fill-opacity:1;fill-rule:nonzero;stroke:none"
         d="m 14403.7,3348 c -5.6,15.1 -18,26.5 -33.4,31.1 -38.1,11.4 -113.2,21.8 -181.5,84.8 -38.4,35.3 -186,130.3 -186,130.3 l -0.8,0.2 c -3.2,-0.1 -18.8,-4.7 -86.7,-61.1 -35.2,-29.1 -94,42.3 -94,42.3 0,0 -11.3,-9.1 -19.7,-26.2 -6.8,-13.6 -11.9,-32.2 -8.2,-55.2 5.1,-32.5 -12.8,-92.5 -26.9,-133.1 -8.6,-24.7 -15.8,-42.1 -15.8,-42.1 0,0 -4.2,-20.3 68.5,-30 l 84.7,-0.8 c 28.4,4.3 49.4,12.3 78.5,15.9 44.3,5.4 64.4,-12.9 68.4,-17.1 0.6,-0.5 0.8,-0.8 0.8,-0.8 l 359.7,-3.1 c 9.2,12.8 0.7,42.8 -7.6,64.9" /><path
         id="path116"
         style="fill:#2b478b;fill-opacity:1;fill-rule:nonzero;stroke:none"
         d="m 12915,3387.1 c -38.2,10.8 -113.4,20.2 -182.7,82.1 -38.9,34.8 -187.8,127.7 -187.8,127.7 l -0.8,0.1 c -3.3,0 -18.7,-4.9 -85.9,-62.3 -34.7,-29.6 -94.5,41 -94.5,41 0,0 -11.2,-9.3 -19.4,-26.6 -6.6,-13.6 -11.4,-32.3 -7.4,-55.2 5.6,-32.4 -11.4,-92.7 -25,-133.5 -8.2,-24.8 -15.2,-42.3 -15.2,-42.3 0,0 -3.9,-20.4 69,-29.1 l 84.7,0.5 c 28.3,4.7 49.2,13 78.3,17 44.1,6 64.6,-12 68.6,-16.1 0.6,-0.5 0.8,-0.8 0.8,-0.8 l 359.7,2.1 c 9,12.9 0.1,42.8 -8.5,64.8 -5.8,14.9 -18.4,26.2 -33.9,30.6" /><g
         transform="scale(1.61015)"
         id="g118"><path
           id="path120"
           style="fill:#233862;fill-opacity:1;fill-rule:nonzero;stroke:none"
           d="m 3089.33,4546.22 -0.14,45.23 13210.71,38.65 0.1,-45.24 -12170.27,-27.17 -1040.4,-11.47" /></g><g
         transform="scale(1.06364)"
         id="g122"><path
           id="path124"
           style="fill:#ffb27d;fill-opacity:1;fill-rule:nonzero;stroke:none"
           d="m 16300,7110.57 c 0,0 -240.7,51.22 -340.2,-14.3 -99.4,-65.52 -173.2,-174.25 -110.8,-198.88 62.3,-24.63 252.7,27.66 285.9,47.8 33.2,20.14 132.6,48.17 143.9,60.57 11.5,12.4 21.2,104.81 21.2,104.81" /></g><g
         transform="scale(1.28804)"
         id="g126"><path
           id="path128"
           style="fill:#e58638;fill-opacity:1;fill-rule:nonzero;stroke:none"
           d="m 15468.8,7153.78 c 0,0 831.2,-597.59 831.2,-865.33 0,-134.78 -202.2,-500.49 -671.7,-552.92 l -70,128.75 c 0,0 396.2,313.91 373.2,346.53 -23,32.64 -542.3,359.56 -542.3,566.79 0,207.25 79.6,376.18 79.6,376.18" /></g><g
         transform="scale(1.08828)"
         id="g130"><path
           id="path132"
           style="fill:#233862;fill-opacity:1;fill-rule:nonzero;stroke:none"
           d="m 15899.9,3365.23 c 0,0 -166.4,-177.16 -389.7,-205.92 0,0 -149.3,-1.2 -149.3,-138.38 h 790.2 c 0,0 13.3,66.06 18.3,184.6 3.9,91.06 130.6,184.6 130.6,184.6 l -400.1,-24.9" /></g><g
         transform="scale(1.22967)"
         id="g134"><path
           id="path136"
           style="fill:#233862;fill-opacity:1;fill-rule:nonzero;stroke:none"
           d="m 16036.9,2912.56 c 0,0 -40.2,-117.18 -201.5,-137.93 0,0 -107.8,-0.89 -107.8,-99.94 h 570.5 c 0,0 1.9,66.6 -28.2,146.87 -25,66.76 -70.3,146.79 -70.3,146.79 l -162.7,-55.79" /></g><g
         transform="scale(1.24706)"
         id="g138"><path
           id="path140"
           style="fill:#233862;fill-opacity:1;fill-rule:nonzero;stroke:none"
           d="m 16300,5174.34 c 0,0 -553.1,-1044.45 -463.9,-1208.68 189.5,-348.42 245.1,-1061.54 223.9,-1111.09 0,0 -143.3,-110.59 -340.7,-58.3 0,0 -516.8,1080.14 -505.1,1432.65 16.2,484.67 581,1232.88 581,1232.88 l 504.8,-287.46" /></g><g
         transform="scale(1.22944)"
         id="g142"><path
           id="path144"
           style="fill:#ffb27d;fill-opacity:1;fill-rule:nonzero;stroke:none"
           d="m 16300,7429.82 c 0,0 -66.9,-251.82 -295.9,-267.63 0,0 -89.1,81.03 -124.6,154.93 -4.4,9.1 -8.7,17.9 -12.8,26.24 -40.4,83.06 -65.4,128.61 -65.4,128.61 0,0 0.1,0.04 0.3,0.13 7,7.82 238.4,260.88 242.8,250.98 101.5,-228.28 255.6,-293.26 255.6,-293.26" /></g><g
         transform="scale(1.20998)"
         id="g146"><path
           id="path148"
           style="fill:#ed975d;fill-opacity:1;fill-rule:nonzero;stroke:none"
           d="m 16298.9,7778.74 c -3.5,-65.35 -52,-212.77 -177,-317.27 -41.1,84.39 -66.4,130.67 -66.4,130.67 0,0 0,0.05 0.2,0.13 7,5.98 244.3,205.78 243.2,186.47" /></g><g
         transform="scale(1.21402)"
         id="g150"><path
           id="path152"
           style="fill:#ffb27d;fill-opacity:1;fill-rule:nonzero;stroke:none"
           d="m 15937,7546.96 c 0,0 363,77.24 311.4,302.53 -51.6,225.29 -39.5,386.99 -273.4,347.21 -233.9,-39.79 -259.1,-136.03 -260.2,-215.42 -1,-79.38 126.5,-448.6 222.2,-434.32" /></g><g
         transform="scale(1.24439)"
         id="g154"><path
           id="path156"
           style="fill:#2b478b;fill-opacity:1;fill-rule:nonzero;stroke:none"
           d="m 15300.9,5316.34 c 0,0 -957.4,-1719.81 -1489.9,-2389.69 0,0 153.8,-128.74 399.3,-54.57 0,0 797.7,646.02 1024.7,1012.63 226.9,366.6 731,991.9 1065,1245.05 l -999.1,186.58" /></g><g
         transform="scale(1.26633)"
         id="g158"><path
           id="path160"
           style="fill:#ee9849;fill-opacity:1;fill-rule:nonzero;stroke:none"
           d="m 16262.6,5935.65 c 0,0 -49.9,-798.03 -210.7,-896.21 -184.7,-112.81 -1126.2,42.33 -1066.6,150.51 28.1,51.03 80.4,151.31 122.4,302.73 47,169.2 81.3,402.27 54.9,702 -9.3,105.89 -9.5,213.59 -1.2,315.12 16,195.15 63.7,367.53 139.9,460.45 115.8,141.24 432.7,306.19 432.7,306.19 0,0 566,-234.18 528.6,-1340.79" /></g><g
         transform="scale(1.2197)"
         id="g162"><path
           id="path164"
           style="fill:#e58638;fill-opacity:1;fill-rule:nonzero;stroke:none"
           d="m 15685.3,5702.68 c 48.8,175.66 84.4,417.65 57,728.83 -9.7,109.94 -9.9,221.77 -1.3,327.17 69,104.79 167.7,170.7 307.2,164.46 0,0 251.8,-738.02 -362.9,-1220.46" /></g><g
         transform="scale(1.21637)"
         id="g166"><path
           id="path168"
           style="fill:#ee9849;fill-opacity:1;fill-rule:nonzero;stroke:none"
           d="m 16028.9,7338.03 c 0,0 -559.8,-525.82 -861.3,-740.71 0,0 -945,-320.71 -970.4,-353.9 0,0 -5.5,-81.52 36.8,-133.37 0,0 931,74.9 1093.8,135.39 162.8,60.47 810.3,413.96 864.8,487.77 54.6,73.79 107.4,655.87 -163.7,604.82" /></g><g
         transform="scale(1.21861)"
         id="g170"><path
           id="path172"
           style="fill:#2b478b;fill-opacity:1;fill-rule:nonzero;stroke:none"
           d="m 16256.8,8273.73 c 2.8,4.38 10.1,8.63 27.2,12.01 0,0 -15,6.79 -33.5,4.64 -7,23.8 -25.8,64.99 -68.5,69.61 0,0 23.9,-8.84 30.4,-34.27 -54.8,42.98 -162.1,64.69 -441.9,1.85 -368.7,-82.82 -211.3,-307.89 -159,-329.95 52.4,-22.06 162.7,74.44 253.7,79.95 91,5.53 126.8,-124.07 159.9,-137.86 33.1,-13.78 16.6,16.55 55.1,41.36 38.7,24.82 52.5,-44.11 46.9,-90.98 -5.5,-46.88 59.7,-98.42 59.7,-98.42 0,0 0,0 48.5,70.85 48.4,70.84 64.7,344.12 30.6,397.04 -3,4.67 -5.9,9.41 -9.1,14.17" /></g><g
         transform="scale(1.92727)"
         id="g174"><path
           id="path176"
           style="fill:#2b478b;fill-opacity:1;fill-rule:nonzero;stroke:none"
           d="m 15926.1,2139.76 c -134,0 -253.9,28.33 -358.8,85.05 -128.8,69.52 -208.8,169.56 -253.3,241.22 -45.9,73.88 -64.2,132.62 -66.5,140.4 -116.9,310.29 -275.3,567.69 -470.8,765.04 -156.3,157.66 -336.5,277.63 -535.7,356.58 -339,134.34 -618.1,102.87 -620.9,102.53 l -4.5,37.52 c 3,0.36 73.9,8.61 188.5,-0.16 105.4,-8.06 269.2,-32.77 450.8,-104.75 204.1,-80.89 388.7,-203.73 548.6,-365.11 199.5,-201.3 360.9,-463.39 479.6,-778.99 l 0.5,-1.45 c 0.1,-0.57 17.4,-59.41 63.3,-132.98 42.1,-67.46 117.7,-161.63 238.9,-226.91 180,-97.02 405.5,-84.05 675.9,-3.47 14.9,4.41 30.4,-4.52 34,-19.62 v 0 c 4.3,-17.79 -6.1,-35.9 -23.7,-40.99 -123.8,-35.95 -239.3,-53.91 -345.9,-53.91" /></g><path
         id="path178"
         style="fill:#ee9849;fill-opacity:1;fill-rule:nonzero;stroke:none"
         d="m 15632.4,7134.69 c -23.2,57.08 -89,148.68 -124.3,195.75 4.9,0.82 9.1,2.23 11.8,4.47 14.9,12.2 63.7,86.73 56.9,96.21 -6.7,9.5 -66.6,52.62 -90.8,39.31 0,0 -88.1,-27.72 -38.7,-131.04 -44.4,-15.96 -116.4,-52.59 -113,-121.56 5,-99.33 -0.1,-155.3 -0.1,-155.3 0,0 79.6,6.3 109.4,103.15 21.4,69.49 31.4,133.84 35.3,164.67 4.8,-0.46 9.7,-0.76 14.5,-0.82 6.6,-34.21 11.8,-95.18 -8.2,-174.98 -31.7,-126.66 129.8,-238.42 132.3,-298.02 0,0 47.1,198.68 14.9,278.16" /><path
         id="path180"
         style="fill:#233862;fill-opacity:1;fill-rule:nonzero;stroke:none"
         d="m 10919.4,3796.1 c 0,0 181.2,-135.8 458.9,-64.1 0,0 223.8,51 272.9,-60.6 0,0 -343.3,-174.4 -430.2,-222.1 -65.5,-36 -133.8,-92.7 -182.1,-136.6 -38.2,-34.7 -97.8,-30 -130.4,10.1 -15.1,18.5 -32.4,40.7 -51.3,66.3 -52.9,71.8 -176.3,303.5 -176.3,303.5 l 238.5,103.5" /><path
         id="path182"
         style="fill:#2b478b;fill-opacity:1;fill-rule:nonzero;stroke:none"
         d="m 11025.8,3865 c 0,0 -110.4,-254.4 -365.1,-207.6 0,0 -519.7,429.2 -876.2,875.1 -115.78,144.8 -214.36,291.3 -272.28,425.5 -236.41,547.33 -874.49,1363.68 -1280.17,1777.43 l 1014.99,367.18 c 0,0 325.11,-653.99 757.66,-1457.31 311.8,-578.8 679.2,-1235.1 1021.1,-1780.3" /><path
         id="path184"
         style="fill:#233862;fill-opacity:1;fill-rule:nonzero;stroke:none"
         d="M 10004.7,5645.3 9784.5,4532.5 c -115.78,144.8 -214.36,291.3 -272.28,425.5 -236.41,547.33 -874.49,1363.68 -1280.17,1777.43 l 1014.99,367.18 c 0,0 325.11,-653.99 757.66,-1457.31" /><path
         id="path186"
         style="fill:#9c5f33;fill-opacity:1;fill-rule:nonzero;stroke:none"
         d="m 10076.5,7692.72 80.8,-65.64 c 0,0 221.1,79.28 271,-183.45 0,0 13.3,-111.97 -57.7,-112.17 -70.9,-0.21 -41.6,12.24 -142.1,9.29 -100.4,-2.94 -183.7,50.01 -198.4,131.52 l -48.01,69.06 94.41,151.39" /><path
         id="path188"
         style="fill:#4a75cb;fill-opacity:1;fill-rule:nonzero;stroke:none"
         d="m 10067.3,7551.86 c 64.5,67.32 59.3,117.1 59.3,117.1 0,0 -746.68,611.3 -822.4,661.1 -51.6,33.94 -601.49,521.43 -858.52,818.62 -127.51,147.41 -285.44,90.23 -466.13,38.38 l -148.8,-42.69 c -179.68,-51.56 -226.4,-302.86 -78.98,-424.97 415.2,-343.91 1105.92,-730.74 1235.15,-812.04 320.83,-201.81 948.83,-441.63 948.83,-441.63 0,0 76.15,28.31 131.55,86.13" /><path
         id="path190"
         style="fill:#233862;fill-opacity:1;fill-rule:nonzero;stroke:none"
         d="m 9175.06,3648.4 c 0,0 -11.06,-203 235.05,-230.1 0,0 140.64,-0.7 141.03,-129.9 l -715.28,-2.3 c 0,0 -20.76,52.1 -25.8,163.8 -3.88,85.7 83.08,309.8 83.08,309.8 l 281.92,-111.3" /><path
         id="path192"
         style="fill:#2b478b;fill-opacity:1;fill-rule:nonzero;stroke:none"
         d="m 8914.13,7102.61 c 0,0 452.17,-496.85 739.2,-1391.99 C 9809.5,5223.6 9367.09,3999.1 9280.85,3573.7 c 0,0 -296.79,-25.2 -499.71,53.3 0,0 -15.42,878.7 103.26,1555.9 66.42,379.06 -595.35,810.67 -884.52,1495.54 -196.73,465.93 42.59,458.02 336.71,469.22 l 577.54,-45.05" /><path
         id="path194"
         style="fill:#9c5f33;fill-opacity:1;fill-rule:nonzero;stroke:none"
         d="m 8178.71,9429.23 c -7.61,187.59 -29.35,295.14 -29.35,295.14 l -409.65,208.1 c 94.98,-385.14 -114.14,-624.19 -114.14,-624.19 0,0 514.97,-131 766.61,11.02 0,0 -84.32,70.81 -213.47,109.93" /><path
         id="path196"
         style="fill:#ab7041;fill-opacity:1;fill-rule:nonzero;stroke:none"
         d="m 8278.03,9788.22 c 0,0 -374.86,-268.99 -538.78,-32.99 -163.93,236.02 -322.71,360.27 -90.3,541.97 232.39,181.7 341.95,124.3 415.83,58.9 73.86,-65.5 306.52,-491.82 213.25,-567.88" /><path
         id="path198"
         style="fill:#739af0;fill-opacity:1;fill-rule:nonzero;stroke:none"
         d="m 9314.65,7128.28 c 0,-44.22 -50.95,-65.38 -61.76,-67.53 -101.47,-18.55 -384.79,-128.76 -640.02,-154.03 -214.91,-22.5 -414.42,-1.13 -633.62,42.88 -29.04,5.85 -97.19,24.19 -102.02,52.01 -6.05,30.38 -845.51,1711.32 -192.93,2433.39 15.33,16.93 144.14,-13.56 261.95,-41.52 108.79,-25.81 208.58,-11.44 297.7,24.32 l 110.46,-58.13 c 135.69,-75.61 392.39,-344.2 422.44,-554.94 15.24,-107.19 76.53,-186.55 94.27,-280.83 6.59,-34.88 13.31,-68.95 20.16,-102.14 13.38,-65.12 27.16,-127.08 41.33,-186.02 38.37,-159.39 78.89,-296.62 118.68,-415.15 42.33,-125.87 83.86,-230.57 120.96,-318.14 48.11,-113.56 88.77,-198.44 114.18,-263.42 17.94,-45.77 28.22,-81.65 28.22,-110.75" /><path
         id="path200"
         style="fill:#4a75cb;fill-opacity:1;fill-rule:nonzero;stroke:none"
         d="m 9286.43,7239.03 c -1185.02,558.3 -1595.4,1630.34 -1595.4,1630.34 0,0 962.76,-355.15 1200.25,-447.61 13.38,-65.12 27.16,-127.08 41.33,-186.02 38.37,-159.39 78.89,-296.62 118.68,-415.15 42.33,-125.87 83.86,-230.57 120.96,-318.14 48.11,-113.56 88.77,-198.44 114.18,-263.42" /><path
         id="path202"
         style="fill:#ab7041;fill-opacity:1;fill-rule:nonzero;stroke:none"
         d="m 9979.73,7562.57 102.37,-37.55 c 0,0 205.1,145 332.8,-90.83 0,0 46.2,-103 -27,-125.38 -73,-22.36 -46.5,-1.31 -149.2,-35.53 -102.8,-34.22 -204,-9.56 -242.8,63.83 l -69.59,51.06 53.42,174.4" /><path
         id="path204"
         style="fill:#739af0;fill-opacity:1;fill-rule:nonzero;stroke:none"
         d="m 10064,7417.76 c 37.9,98.78 55.2,143.52 55.2,143.52 0,0 -773.81,630.69 -852.64,684.78 -53.72,36.87 -588.57,436.66 -849.33,748.24 -129.36,154.55 -333.29,225.19 -530.55,183.82 l -162.43,-34.06 c -196.13,-41.12 -259.86,-289.37 -107.71,-419.8 428.5,-367.34 1151.21,-793.39 1285.95,-882.02 334.53,-220 1074.43,-528.27 1074.43,-528.27 0,0 57.38,26.21 87.08,103.79" /><path
         id="path206"
         style="fill:#233862;fill-opacity:1;fill-rule:nonzero;stroke:none"
         d="m 8104.38,10569.2 c -13.45,90.7 -43.7,154.6 -43.7,154.6 0,0 -23.52,-97.5 -201.6,-84 -178.07,13.4 -460.31,-17.5 -554.39,-220.5 -5.99,-12.9 -11.33,-26.2 -16.08,-39.8 -17.03,45 -21.13,112.4 -21.13,112.4 -33.85,-87.3 0,-196.6 0,-196.6 h 0.03 c -0.52,-3.2 -0.94,-6.4 -1.4,-9.6 -39.29,-33.2 -72.31,-136.5 -72.31,-136.5 11.86,28.8 40.79,47.6 66.57,59.2 -0.8,-157.9 63.24,-312.29 175.64,-358.23 164.36,-67.21 163.03,-15.95 328.34,-125.57 0,0 44.34,55 14.1,91.97 -30.25,36.96 -144.49,90.72 -80.65,144.47 63.84,53.76 87.37,-6.71 110.89,30.25 23.52,36.91 -94.09,144.51 57.11,245.31 151.21,100.8 252.01,241.9 238.58,332.6" /><path
         id="path208"
         style="fill:#233862;fill-opacity:1;fill-rule:nonzero;stroke:none"
         d="m 2465.14,4297.2 c -40.18,137.1 -879.2,721.3 -341.6,1531.02 305.1,459.56 675.97,1188.05 1099.74,1451.77 530.06,329.86 1077.25,102.58 1750.78,112.92 l 0.22,-72.83 C 4314.35,7309.94 3801.25,7559.17 3282.74,7236.48 2867.67,6978.18 2464,6258.89 2187.38,5793.51 1686.74,4951.3 2575.29,4475.8 2570.42,4315.1 c -2.24,-73.9 -97.34,-45 -105.28,-17.9" /><path
         id="path210"
         style="fill:#233862;fill-opacity:1;fill-rule:nonzero;stroke:none"
         d="m 4086.87,3589.3 c 0,0 50.84,-147.9 254.43,-174 0,0 136.1,-1.2 136.1,-126.2 h -720.32 c 0,0 -2.27,84 35.63,185.3 31.54,84.3 88.72,185.4 88.72,185.4 l 205.44,-70.5" /><path
         id="path212"
         style="fill:#ee9849;fill-opacity:1;fill-rule:nonzero;stroke:none"
         d="m 4720.63,4730.3 c -189.44,-561.1 -513.27,-1237.9 -513.27,-1237.9 -252.75,-66.9 -436.14,74.6 -436.14,74.6 -27.22,63.5 44.01,976.4 286.54,1422.5 37.98,69.8 -14.78,264 -102.27,492.17 -175.73,458.78 -491.57,1055.12 -491.57,1055.12 l 646.2,368.05 c 0,0 723.13,-957.87 743.9,-1578.44 4.5,-135.5 -52.01,-355.1 -133.39,-596.1" /><path
         id="path214"
         style="fill:#ffb27d;fill-opacity:1;fill-rule:nonzero;stroke:none"
         d="m 6370.25,7532.07 c 0,0 223.15,40.8 307.46,-36.62 84.34,-77.42 152.09,-178.96 41.21,-184.34 -115.36,-5.6 -185.5,6.87 -213.83,30.82 -28.33,23.97 -115.95,60.61 -125.18,74.81 -9.22,14.2 -9.66,115.33 -9.66,115.33" /><path
         id="path216"
         style="fill:#1e3d70;fill-opacity:1;fill-rule:nonzero;stroke:none"
         d="m 3877.13,9371.9 c 0,0 -1099.03,-832.14 -1099.02,-1144.19 0,-178.23 309.75,-608.6 1035.52,-761.98 L 3941.3,7646 c 0,0 -635.25,479.63 -604.8,522.77 30.44,43.14 645.99,431.71 645.99,705.73 0,274.04 -105.36,497.4 -105.36,497.4" /><path
         id="path218"
         style="fill:#233862;fill-opacity:1;fill-rule:nonzero;stroke:none"
         d="m 6567.83,3672.2 c 0,0 185.86,-197.9 435.38,-230 0,0 166.81,-1.4 166.81,-154.6 h -882.84 c 0,0 -14.87,73.8 -20.45,206.2 -4.29,101.7 -145.9,206.3 -145.9,206.3 l 447,-27.9" /><path
         id="path220"
         style="fill:#e58638;fill-opacity:1;fill-rule:nonzero;stroke:none"
         d="m 4720.63,4730.3 -765.14,751.37 c -175.73,458.78 -491.57,1055.12 -491.57,1055.12 l 646.2,368.05 c 0,0 723.13,-957.87 743.9,-1578.44 4.5,-135.5 -52.01,-355.1 -133.39,-596.1" /><path
         id="path222"
         style="fill:#ffb27d;fill-opacity:1;fill-rule:nonzero;stroke:none"
         d="m 3758.79,9289.9 c 0,0 84.47,-317.82 373.47,-337.78 0,0 112.41,102.26 157.29,195.55 5.53,11.48 10.93,22.58 16.11,33.12 51.02,104.83 82.47,162.32 82.47,162.32 0,0 -0.04,0.04 -0.22,0.15 -8.92,9.87 -300.93,329.26 -306.45,316.77 -128.25,-288.11 -322.67,-370.13 -322.67,-370.13" /><path
         id="path224"
         style="fill:#ed975d;fill-opacity:1;fill-rule:nonzero;stroke:none"
         d="m 4085.75,9574.89 c 4.41,-81.18 64.52,-264.29 219.91,-394.1 51.02,104.83 82.47,162.32 82.47,162.32 0,0 -0.04,0.04 -0.22,0.15 -8.75,7.42 -303.54,255.61 -302.16,231.63" /><path
         id="path226"
         style="fill:#ffb27d;fill-opacity:1;fill-rule:nonzero;stroke:none"
         d="m 4469.14,9318.3 c 0,0 -452.35,96.26 -388.08,377.04 64.28,280.77 49.19,482.26 340.73,432.76 291.53,-49.6 322.92,-169.57 324.25,-268.51 1.34,-98.94 -157.57,-559.09 -276.9,-541.29" /><path
         id="path228"
         style="fill:#ee9849;fill-opacity:1;fill-rule:nonzero;stroke:none"
         d="m 4784.89,6704.08 c 0,0 1223.04,-2196.98 1903.28,-3052.78 0,0 -196.55,-164.5 -510.18,-69.7 0,0 -1018.99,825.2 -1308.95,1293.6 -289.93,468.4 -933.87,1267.13 -1360.5,1590.54 l 1276.35,238.34" /><path
         id="path230"
         style="fill:#2a4e96;fill-opacity:1;fill-rule:nonzero;stroke:none"
         d="m 3190.05,7628.92 c 0,0 64.9,-1037.45 273.89,-1165.07 240.15,-146.65 1463.99,55.03 1386.55,195.65 -36.63,66.35 -104.55,196.71 -159.2,393.55 -61.05,219.96 -105.61,522.96 -71.31,912.59 12.1,137.67 12.42,277.68 1.61,409.66 -20.8,253.7 -82.85,477.79 -181.88,598.57 -150.55,183.61 -562.6,398.05 -562.6,398.05 0,0 -735.73,-304.43 -687.06,-1743" /><path
         id="path232"
         style="fill:#1e3d70;fill-opacity:1;fill-rule:nonzero;stroke:none"
         d="m 4691.29,7053.05 c -61.05,219.96 -105.61,522.96 -71.31,912.59 12.1,137.67 12.42,277.68 1.61,409.66 -86.42,131.2 -209.87,213.72 -384.68,205.91 0,0 -315.19,-924.08 454.38,-1528.16" /><path
         id="path234"
         style="fill:#2a4e96;fill-opacity:1;fill-rule:nonzero;stroke:none"
         d="m 4315.81,9083.91 c 0,0 646.77,-708.07 1001.61,-1004.37 0,0 1146.06,-489.46 1174.53,-533.21 0,0 -0.91,-102.03 -58.65,-162.54 0,0 -1151.91,182.07 -1348.87,272.9 -196.94,90.83 -969.43,592.71 -1030.27,689.81 -60.85,97.08 -71.04,826.83 261.65,737.41" /><path
         id="path236"
         style="fill:#a9453d;fill-opacity:1;fill-rule:nonzero;stroke:none"
         d="m 4062.29,9619.42 c -7.23,-0.93 -107.54,13.46 -117.62,422.28 -1.58,64.2 33.6,184.8 141.08,255.4 107.48,70.5 359.55,47 554.44,-3.4 194.89,-50.4 190.38,-171.3 184.8,-292.3 -5.84,-127.07 80.64,-274.71 80.64,-274.71 -194.89,-13.44 -322.56,197.39 -396.48,207.48 -73.92,10.08 -144.48,-80.64 -164.64,-110.89 -20.16,-30.23 -40.32,-53.76 -107.57,13.44 -67.24,67.21 -90.67,-97.44 -90.67,-131.04 0,0 -23.53,-78.39 -83.98,-86.26" /><path
         id="path238"
         style="fill:#ffb27d;fill-opacity:1;fill-rule:nonzero;stroke:none"
         d="m 14063.9,7511.59 c -20.4,5.68 -108.4,2.41 -309.4,34.82 0,0 -12.3,1.26 -74.3,42.45 0,0 -0.1,-0.06 -0.1,-0.07 -189.6,131.41 -389.1,277.15 -619.1,413.63 -161.1,95.74 -432.3,360.93 -684.5,571.24 -35.7,29.84 -71,58.54 -105.7,85.47 -38.1,29.64 -71.7,55.92 -99.5,77.62 -59,46.2 -141.2,47.86 -202.5,4.56 -64.9,-45.97 -134.2,-120.09 -143.4,-230.33 -2.9,-33.97 16.8,-74.18 52.9,-118.48 46.1,-56.41 108.7,-114.17 181,-171.49 227.7,-180.96 551,-358.48 754.2,-480.73 234.8,-141.29 579.9,-250.05 744.5,-297.31 -0.1,-0.06 -0.2,-0.12 -0.3,-0.17 0,0 87.7,-23.84 93.8,-28.2 6.2,-4.37 139.3,-51.96 195.1,-79.4 55.9,-27.45 255.9,-50.69 320.9,40.31 65,91.01 -61.9,124.5 -103.6,136.08" /><path
         id="path240"
         style="fill:#2b478b;fill-opacity:1;fill-rule:nonzero;stroke:none"
         d="m 12384.9,8575.6 c 0,0 -78.9,-232.95 -326.8,-363.24 -74.4,59.05 -138.9,118.55 -186.3,176.64 -37.3,45.63 -57.5,87.04 -54.5,122.03 10.3,123.71 94.1,203.27 165.5,249.24 55.7,35.86 128,32.44 180.1,-8.39 30.5,-23.82 68.9,-53.82 113.1,-88.25 35.7,-27.74 72.1,-57.31 108.9,-88.03" /><g
         transform="scale(1.37269)"
         id="g242"><path
           id="path244"
           style="fill:#ffb27d;fill-opacity:1;fill-rule:nonzero;stroke:none"
           d="m 16300,5492.29 c -5.3,-1.5 -95.9,-21.65 -158.4,-12.17 -62.6,9.49 -159.2,-64.7 -164.9,-85.41 -5.7,-20.71 18.9,-68.09 53,-68.09 34.1,0 59.2,15.86 70.3,32.56 11.2,16.71 66.1,2.71 96.5,22.4 30.4,19.69 103.5,110.71 103.5,110.71" /></g><g
         transform="scale(1.50198)"
         id="g246"><path
           id="path248"
           style="fill:#ffb27d;fill-opacity:1;fill-rule:nonzero;stroke:none"
           d="m 16143.6,5429.21 c -23.8,-31.9 -129.7,-114.55 -254.7,-202.33 v 0 c -172.5,-121.1 -381.7,-251.93 -462.9,-273.02 -140.3,-36.37 -711.9,-56.01 -711.9,-10.06 0,42.64 524.8,165.94 665,197.11 64.2,14.24 199.7,137.34 328,266.89 152.7,154.11 295.2,317.32 295.2,317.32 100.2,49.64 297.7,-86.94 141.3,-295.91" /></g><g
         transform="scale(1.50198)"
         id="g250"><path
           id="path252"
           style="fill:#699dee;fill-opacity:1;fill-rule:nonzero;stroke:none"
           d="m 16143.6,5429.21 c -23.8,-31.9 -129.7,-114.55 -254.7,-202.33 v 0 c -132.7,42.74 -170.8,132.19 -181.8,180.92 152.7,154.11 295.2,317.32 295.2,317.32 100.2,49.64 297.7,-86.94 141.3,-295.91" /></g><g
         transform="scale(1.6307)"
         id="g254"><path
           id="path256"
           style="fill:#ed975d;fill-opacity:1;fill-rule:nonzero;stroke:none"
           d="m 16300,4640.84 c 0,0 -155.3,30.38 -218.6,-12.81 -63.2,-43.19 -109.5,-113.89 -69.2,-129.06 40.4,-15.19 162.2,20.46 183.4,33.76 21.1,13.3 84.7,32.38 91.9,40.48 7.2,8.1 12.5,67.63 12.5,67.63" /></g><g
         transform="scale(1.77853)"
         id="g258"><path
           id="path260"
           style="fill:#1e3d70;fill-opacity:1;fill-rule:nonzero;stroke:none"
           d="m 16117.8,5029.12 c 0,0 -446.8,-365.18 -647.7,-513.42 0,0 -633.7,-226.76 -650.4,-249.42 0,0 -2.8,-55.04 26.3,-89.53 0,0 626.9,60.86 736,103.45 109.1,42.59 541.8,288.15 577.8,338.51 35.9,50.38 140.2,447.86 -42,410.41" /></g><g
         transform="scale(1.59921)"
         id="g262"><path
           id="path264"
           style="fill:#233862;fill-opacity:1;fill-rule:nonzero;stroke:none"
           d="m 16031.5,2286.81 c 0,0 -111.6,-118.93 -261.5,-138.19 0,0 -100.2,-0.82 -100.2,-92.86 h 530.3 c 0,0 8.9,44.33 12.2,123.87 2.6,61.09 87.7,123.88 87.7,123.88 l -268.5,-16.7" /></g><g
         transform="scale(1.77238)"
         id="g266"><path
           id="path268"
           style="fill:#2b478b;fill-opacity:1;fill-rule:nonzero;stroke:none"
           d="m 16300,3531.97 c -231.2,-175.29 -729.4,-624.19 -886.5,-878.02 -34.7,-56.09 -90.1,-118.66 -155.4,-182.08 -229.8,-223.48 -581.7,-457.63 -581.7,-457.63 -169.9,-51.34 -276.4,37.8 -276.4,37.8 258.5,330.8 535.2,663.57 771.2,940.6 337.3,395.85 591.6,677.87 591.6,677.87 l 537.2,-138.54" /></g><g
         transform="scale(1.77238)"
         id="g270"><path
           id="path272"
           style="fill:#233862;fill-opacity:1;fill-rule:nonzero;stroke:none"
           d="m 16300,3531.97 c -231.2,-175.29 -729.4,-624.19 -886.5,-878.02 -34.7,-56.09 -90.1,-118.66 -155.4,-182.08 l -86.9,520.77 c 337.3,395.85 591.6,677.87 591.6,677.87 l 537.2,-138.54" /></g><g
         transform="scale(1.73387)"
         id="g274"><path
           id="path276"
           style="fill:#233862;fill-opacity:1;fill-rule:nonzero;stroke:none"
           d="m 16076.6,2098.15 c 0,0 -34.2,-99.55 -171.2,-117.14 0,0 -91.6,-0.75 -91.6,-84.9 h 484.7 c 0,0 1.5,56.58 -24,124.75 -21.2,56.69 -59.7,124.69 -59.7,124.69 l -138.2,-47.4" /></g><g
         transform="scale(1.79525)"
         id="g278"><path
           id="path280"
           style="fill:#2b478b;fill-opacity:1;fill-rule:nonzero;stroke:none"
           d="m 15712.2,3585.04 c 0,0 -614.1,-521.1 -595.3,-703.43 24.5,-238.52 362,-923.49 362,-923.49 0,0 58.8,-34.32 207.4,50.52 0,0 -12,523.33 -168.6,834.43 -32.5,64.56 616.4,331.9 690.4,514.73 74,182.81 91.9,285.71 0,287.5 -91.9,1.78 -495.9,-60.26 -495.9,-60.26" /></g><g
         transform="scale(1.62398)"
         id="g282"><path
           id="path284"
           style="fill:#ffb27d;fill-opacity:1;fill-rule:nonzero;stroke:none"
           d="m 16300,4587.38 c 0,0 -180.4,69.78 -236.7,46.33 -71,-29.57 -114.5,-81.02 -77.5,-103.45 37.1,-22.43 122.8,-42.76 191.2,-30.33 24.7,4.5 89.6,16.34 98.2,23.01 8.6,6.66 24.8,64.44 24.8,64.44" /></g><g
         transform="scale(1.75825)"
         id="g286"><path
           id="path288"
           style="fill:#ffb27d;fill-opacity:1;fill-rule:nonzero;stroke:none"
           d="m 16300,5166.94 c 0,0 -30.4,-177.07 -186.7,-202.09 0,0 -66.1,50.13 -95.1,98.69 -3.6,5.98 -7.1,11.75 -10.4,17.23 -32.9,54.54 -52.8,84.28 -52.8,84.28 0,0 0,0.02 0.1,0.09 4.3,5.82 147.6,193.9 151.2,187.37 83.9,-150.47 193.7,-185.57 193.7,-185.57" /></g><g
         transform="scale(1.73772)"
         id="g290"><path
           id="path292"
           style="fill:#ed975d;fill-opacity:1;fill-rule:nonzero;stroke:none"
           d="m 16298.4,5368.65 c 1.6,-44.91 -22.4,-148.69 -101.5,-227.86 -33.3,55.18 -53.4,85.27 -53.4,85.27 0,0 0,0.03 0.1,0.1 4.4,4.52 154.4,155.77 154.8,142.49" /></g><g
         transform="scale(1.74115)"
         id="g294"><path
           id="path296"
           style="fill:#ffb27d;fill-opacity:1;fill-rule:nonzero;stroke:none"
           d="m 16047.1,5189.54 c 0,0 252.9,33.22 229.8,190.43 -23.1,157.22 -6,267.39 -168.5,252.82 -162.5,-14.56 -185,-79.15 -190,-133.51 -5.1,-54.35 62.3,-314.33 128.7,-309.74" /></g><g
         transform="scale(1.80208)"
         id="g298"><path
           id="path300"
           style="fill:#2a4e96;fill-opacity:1;fill-rule:nonzero;stroke:none"
           d="m 16284.9,4186.7 c 0,0 15.1,-553.86 -89.8,-631.61 -120.4,-89.31 -779.8,-40.76 -745.4,37.59 15.1,34.3 41.9,99.2 61.3,194 1.5,7.33 3,14.83 4.4,22.54 21.9,119.68 31.1,282.65 -5.8,487.88 -2.3,13.41 -4.6,26.88 -6.5,40.37 -8.8,59.49 -13.4,119.49 -13.9,177.02 -1.1,135.68 21.2,257.61 67.9,326.46 71.2,104.64 279.7,238.18 279.7,238.18 0,0 405.1,-126.45 448.1,-892.43" /></g><g
         transform="scale(1.75291)"
         id="g302"><path
           id="path304"
           style="fill:#1e3d70;fill-opacity:1;fill-rule:nonzero;stroke:none"
           d="m 16266.3,4809.7 c 0,0 33.7,-628.4 -320.2,-916.82 1.5,7.54 3,15.25 4.5,23.18 22.5,123.04 31.9,290.58 -5.9,501.56 -2.5,13.8 -4.8,27.64 -6.8,41.51 96,186.92 219.3,344.59 328.4,350.57" /></g><g
         transform="scale(1.77228)"
         id="g306"><path
           id="path308"
           style="fill:#2a4e96;fill-opacity:1;fill-rule:nonzero;stroke:none"
           d="m 16117.1,5005.8 c 0,0 -137.8,-12.41 -591.2,-528.38 0,0 -635.9,-227.55 -652.8,-250.3 0,0 -2.8,-55.23 26.4,-89.84 0,0 629.1,61.08 738.6,103.82 109.6,42.74 543.7,289.15 579.9,339.71 36,50.55 82,462.56 -100.9,424.99" /></g><g
         transform="scale(1.74737)"
         id="g310"><path
           id="path312"
           style="fill:#2b478b;fill-opacity:1;fill-rule:nonzero;stroke:none"
           d="m 16232.2,5339.83 c 0,0 -28.8,2.99 -26.6,42.51 2.1,39.51 -1.1,90.79 -32.4,79.26 -31.3,-11.55 -31.3,-37.18 -45.3,-23.08 -14.1,14.1 -18.2,76.92 -113.4,75.4 -95.2,-1.51 -131.8,-36.95 -177.1,-20.28 -45.3,16.67 -51.8,83.33 -51.8,83.33 0,0 14,-23.08 33.4,-29.48 0,0 -79.8,96.14 1.1,170.49 81,74.35 170.7,34.54 220.3,34.61 109.1,0.17 179.7,-1.99 219.7,-71.22 39.9,-69.23 37.6,-268.46 -27.9,-341.54" /></g></g></g></svg>