<?xml version="1.0" encoding="UTF-8"?>
<!DOCTYPE svg PUBLIC "-//W3C//DTD SVG 1.1//EN" "http://www.w3.org/Graphics/SVG/1.1/DTD/svg11.dtd">
<!-- Creator: CorelDRAW X6 -->
<svg xmlns="http://www.w3.org/2000/svg" xml:space="preserve" width="45.9861in" height="21.3889in" version="1.1" style="shape-rendering:geometricPrecision; text-rendering:geometricPrecision; image-rendering:optimizeQuality; fill-rule:evenodd; clip-rule:evenodd"
viewBox="0 0 45986 21389"
 xmlns:xlink="http://www.w3.org/1999/xlink">
 <defs>
  <style type="text/css">
   <![CDATA[
    .fil17 {fill:#1E3D70;fill-rule:nonzero}
    .fil7 {fill:#233862;fill-rule:nonzero}
    .fil18 {fill:#2A4E96;fill-rule:nonzero}
    .fil6 {fill:#2B478B;fill-rule:nonzero}
    .fil5 {fill:#2C3A64;fill-rule:nonzero}
    .fil2 {fill:#2E3552;fill-rule:nonzero}
    .fil9 {fill:#4A75CB;fill-rule:nonzero}
    .fil8 {fill:#699DEE;fill-rule:nonzero}
    .fil16 {fill:#739AF0;fill-rule:nonzero}
    .fil11 {fill:#9B3D38;fill-rule:nonzero}
    .fil14 {fill:#9C5F33;fill-rule:nonzero}
    .fil13 {fill:#A9453D;fill-rule:nonzero}
    .fil15 {fill:#AB7041;fill-rule:nonzero}
    .fil12 {fill:#E58638;fill-rule:nonzero}
    .fil1 {fill:#E9F3FE;fill-rule:nonzero}
    .fil3 {fill:#ED975D;fill-rule:nonzero}
    .fil10 {fill:#EE9849;fill-rule:nonzero}
    .fil4 {fill:#FFB27D;fill-rule:nonzero}
    .fil0 {fill:white;fill-rule:nonzero}
   ]]>
  </style>
 </defs>
 <g id="Layer_x0020_1">
  <metadata id="CorelCorpID_0Corel-Layer"/>
  
  <path class="fil1" d="M4564 16823c0,0 -3343,-5074 592,-7495 2196,-1351 5193,1048 7420,-2579 1296,-2110 5830,-2751 8097,130 2267,2881 4216,2867 5781,2334 1794,-611 2582,-2451 5390,-2062 3246,450 2811,3176 5203,2701 4612,-915 8029,4314 4841,7007l-37323 -36z"/>
  <path class="fil2" d="M43229 16898l-40438 0c-22,0 -39,-18 -39,-39l0 0c0,-22 18,-39 39,-39l40438 0c21,0 39,18 39,39l0 0c0,22 -18,39 -39,39z"/>
  <path class="fil3" d="M32256 9476c0,0 -1041,1093 -1325,1188 -453,151 -796,249 -986,313l0 0c0,0 -235,-27 -312,33 -77,60 -99,95 -67,121 31,26 325,8 379,0 54,-8 218,-22 218,-22l-6 -4c317,-15 743,-76 920,-122 293,-76 1210,-803 1328,-961 326,-436 60,-650 -150,-547z"/>
  <path class="fil4" d="M33344 9362c-53,-11 -144,-203 -142,-514l-24 5 -401 79c0,0 9,126 9,245 0,61 -2,119 -9,158 -77,3 -129,6 -129,6 0,0 -313,278 -338,426 -25,148 571,145 773,126 202,-18 261,-531 261,-531 0,0 0,0 0,0z"/>
  <path class="fil3" d="M32777 8931c0,0 9,126 9,245 224,-6 343,-210 392,-323l-401 79z"/>
  <path class="fil5" d="M33724 7734c-89,-55 -231,10 -231,10 49,-69 228,-46 228,-46 -358,-77 -432,152 -438,173 -225,-204 -569,147 -653,241 -84,73 -166,215 -38,532l38 124 483 35 90 120c0,0 54,-125 126,-86 111,61 328,-185 259,-510 -7,-35 -16,-67 -26,-97 23,10 49,18 74,18 65,0 163,-165 177,-221 13,-56 -1,-239 -90,-293z"/>
  <path class="fil4" d="M32702 9044c0,0 530,10 531,-320 1,-330 70,-551 -268,-571 -338,-20 -404,106 -432,216 -27,110 31,665 169,676z"/>
  <path class="fil5" d="M33091 8589c223,58 319,-2 319,-2 0,0 -171,-136 -206,-373 0,0 -340,-202 -476,-77 -35,-30 -97,-52 -178,47 -123,149 -14,412 -14,412 50,6 63,-167 89,-251 19,-62 83,-125 116,-154 10,38 116,409 383,533 0,0 -123,-109 -213,-260 52,59 112,107 180,125z"/>
  <path class="fil6" d="M32702 12499c-151,343 -343,789 -511,1184 -35,81 -68,160 -100,235 -169,397 -295,695 -295,695 11,937 -1302,2077 -1302,2077l-149 -104c0,0 710,-972 807,-2087 74,-852 275,-1602 444,-2112 93,-279 176,-486 224,-599 36,-12 75,-20 115,-24l727 711 40 24z"/>
  <path class="fil7" d="M32702 12499c-151,343 -343,789 -511,1184l-595 -1296c93,-279 176,-486 224,-599 36,-12 75,-20 115,-24l727 711 40 24z"/>
  <path class="fil6" d="M34166 16547l-160 57c0,0 -597,-1711 -844,-1974 -477,-509 -1180,-2727 -1180,-2727l1083 -308c141,137 416,438 442,1048 29,672 95,1452 107,1603 0,0 0,0 0,0 1,12 7,22 15,31 739,823 537,2270 537,2270z"/>
  <path class="fil8" d="M33739 9947c-61,171 -142,317 -142,317 0,0 -529,853 -511,935 18,82 286,678 227,716 -311,200 -1561,116 -1539,-40 23,-156 197,-455 206,-792 5,-183 -18,-413 -12,-629 0,-8 0,-15 1,-23 -59,-55 -103,-110 -135,-162 -103,-167 -86,-300 -86,-300 0,0 347,-428 481,-524 134,-96 416,-105 416,-105 0,0 -218,278 -223,374 -5,96 572,130 662,67 90,-63 257,-420 257,-420 0,0 360,14 433,148 56,104 18,281 -37,437z"/>
  <path class="fil9" d="M31970 10307c5,101 0,147 0,147 0,-8 0,-15 1,-23 -59,-55 -103,-110 -135,-162 -6,-51 12,-109 78,-169 207,-185 263,-217 263,-217 0,0 -212,323 -207,424z"/>
  <path class="fil9" d="M33597 10264c0,0 -529,853 -511,935 -506,-967 347,-1200 653,-1252 -61,171 -142,317 -142,317z"/>
  <path class="fil7" d="M30784 16781c0,0 -9,-23 -20,-56 -18,-54 -41,-133 -34,-176 5,-30 -1,-55 -10,-73 -11,-23 -104,59 -150,20 -89,-75 -110,-81 -114,-81l-1 0c0,0 -195,124 -246,170 -91,82 -190,96 -240,110 -20,6 -37,21 -44,41 -11,29 -23,69 -11,86l474 -1c0,0 0,0 1,-1 5,-6 32,-29 90,-22 38,5 66,16 103,22l112 0c96,-12 91,-39 91,-39z"/>
  <path class="fil7" d="M34267 16783c0,0 -9,-23 -20,-56 -18,-54 -41,-133 -34,-176 5,-30 -1,-55 -10,-73 -11,-23 -26,-35 -26,-35 0,0 -78,93 -124,55 -89,-75 -109,-81 -114,-81l-1 0c0,0 -196,124 -246,170 -91,82 -190,95 -240,110 -20,6 -37,21 -45,41 -11,29 -23,69 -11,86l474 0c0,0 0,0 1,-1 5,-5 32,-29 90,-22 39,5 66,16 103,22l112 0c96,-12 91,-39 91,-39z"/>
  <path class="fil10" d="M18266 11198l-66 32c-3,-4 -4,-7 -5,-8 0,-1 67,-22 71,-24z"/>
  <path class="fil11" d="M16684 7564c0,0 -200,-166 -431,-140 -232,27 -494,125 -527,590 -33,465 134,665 -125,847 -260,182 -208,364 -149,542 0,0 112,-281 254,-254 0,0 -187,236 -167,403 19,167 197,319 290,375 0,0 82,-99 233,-66 305,66 708,-414 668,-614 -40,-200 -46,-1685 -46,-1685z"/>
  <path class="fil10" d="M19448 16539l-201 13c0,0 -220,-525 -378,-1106 -79,-290 -143,-594 -156,-853 -11,-217 -18,-384 -19,-384 -8,-10 -54,-55 -126,-133 -24,-26 -51,-56 -80,-90 -164,-189 -403,-494 -624,-893 0,0 -1,-1 -1,-1 -107,-195 -211,-412 -300,-649 0,-1 -1,-2 -1,-3 -1,-1 -195,-447 -236,-694 0,0 0,0 0,0 -3,-16 -5,-32 -6,-46 -1,-15 -2,-28 -1,-41l8 -4 873 -425c36,51 236,316 407,693 13,29 26,58 39,88 10,22 20,44 30,66 2,5 5,11 7,16 307,697 622,1711 691,2131 27,162 44,615 55,1078 15,610 19,1236 19,1236z"/>
  <path class="fil12" d="M18684 12094l-115 1982c-24,-26 -51,-56 -80,-90 -164,-189 -403,-494 -624,-893 0,0 -1,-1 -1,-1 -107,-203 -210,-427 -300,-671 0,-1 -1,-2 -1,-3 0,-1 -168,-394 -236,-672 0,0 0,0 0,0 -3,-16 -5,-32 -6,-46 -1,-15 -2,-28 -1,-41l8 -4c0,0 862,-419 906,-433 9,18 189,294 373,701 13,29 26,58 39,88 10,22 20,44 30,66 2,5 5,11 7,16z"/>
  <path class="fil10" d="M18293 14391c-66,179 -298,710 -513,1193 -212,478 -408,910 -408,910l-198 20c0,0 -24,-485 16,-1008 35,-453 118,-935 308,-1159 8,-9 6,-24 2,-36l0 0c-26,-80 -133,-406 -241,-819 -26,-100 -52,-205 -78,-313 -37,-157 -71,-319 -99,-480 -1,-3 -1,-5 -2,-8 -14,-36 -35,-97 -60,-178 -33,-111 -71,-259 -101,-433 -1,-5 -2,-10 -2,-15 -63,-385 -16,-612 -16,-612 0,0 720,-95 950,-174 230,-79 371,-64 371,-64 0,0 219,2775 71,3178z"/>
  <path class="fil3" d="M19743 11006c-15,-25 -139,-149 -417,-204 0,0 -17,-2 -101,-63 0,0 0,0 0,0 -257,-192 -526,-404 -838,-605 -166,-107 -414,-352 -673,-597 -131,-124 -264,-248 -391,-354 -68,-57 -606,287 -558,350 254,335 902,716 1265,953 319,208 792,376 1018,450 0,0 0,0 -1,0 0,0 120,37 129,44 8,6 149,130 225,170 76,41 189,26 313,-12 82,-25 54,-91 29,-133z"/>
  <path class="fil7" d="M17714 9536c-29,117 -113,331 -350,350 -303,24 -472,-691 -149,-795 42,36 40,34 108,91 126,106 260,230 391,354z"/>
  <path class="fil13" d="M16952 7599c-111,-91 -584,-447 -763,-79 0,0 -183,110 -203,453 -20,349 288,602 394,521 68,-52 156,76 156,76l88 -191 429 -97 20 -135c83,-350 -25,-486 -123,-548z"/>
  <path class="fil6" d="M16878 11989c-192,-457 -930,-2218 -383,-3019 5,-2 9,-4 14,-6 205,-90 558,-39 654,41 474,396 552,647 602,978 51,343 116,698 386,1073 34,47 72,95 115,143 345,384 -1285,1036 -1388,791z"/>
  <path class="fil4" d="M17060 8966c19,26 147,103 -161,103 -240,0 -414,-84 -405,-99 31,-47 67,-169 11,-492l26 1 430 12c0,0 13,133 33,256 17,104 50,197 66,218z"/>
  <path class="fil3" d="M16961 8491c0,0 13,133 33,256 -234,33 -393,-159 -463,-268l430 12z"/>
  <path class="fil4" d="M17042 8603c0,0 -551,93 -604,-251 -53,-344 -159,-564 190,-638 349,-74 438,47 484,157 46,111 72,698 -70,731z"/>
  <path class="fil13" d="M17067 7683c-101,-90 -162,-58 -193,-22 -342,-112 -484,155 -484,155 1,252 -156,421 -156,421 0,0 110,47 333,-48 68,-29 124,-89 168,-158 -70,172 -180,304 -180,304 258,-170 310,-573 315,-615 38,25 115,81 145,142 41,83 81,262 132,248 0,0 72,-292 -79,-427z"/>
  <path class="fil7" d="M18151 11055c-1305,-332 -1704,-1468 -1704,-1468 0,0 1221,331 1374,453 51,343 67,640 330,1015z"/>
  <path class="fil4" d="M17780 15584c-212,478 -408,910 -408,910l-198 20c0,0 -24,-485 16,-1008 106,54 293,111 590,78z"/>
  <path class="fil4" d="M19448 16539l-201 13c0,0 -220,-525 -378,-1106 137,7 412,0 560,-143 15,610 19,1236 19,1236z"/>
  <path class="fil6" d="M20005 16739c-8,-21 -25,-37 -46,-43 -53,-16 -157,-30 -252,-118 -53,-49 -258,-181 -258,-181l-1 0c-4,0 -26,7 -120,85 -49,40 -131,-59 -131,-59 0,0 -16,13 -27,36 -9,19 -17,45 -11,77 7,45 -18,128 -37,185 -12,34 -22,58 -22,58 0,0 -6,28 95,42l118 1c39,-6 69,-17 109,-22 62,-8 89,18 95,24 1,1 1,1 1,1l500 4c13,-18 1,-59 -11,-90z"/>
  <path class="fil6" d="M17938 16685c-53,-15 -157,-28 -254,-114 -54,-48 -261,-177 -261,-177l-1 0c-5,0 -26,7 -119,87 -48,41 -131,-57 -131,-57 0,0 -16,13 -27,37 -9,19 -16,45 -10,77 8,45 -16,129 -35,185 -11,34 -21,59 -21,59 0,0 -5,28 96,40l118 -1c39,-7 68,-18 109,-24 61,-8 90,17 95,22 1,1 1,1 1,1l500 -3c12,-18 0,-59 -12,-90 -8,-21 -26,-36 -47,-43z"/>
  <polygon class="fil7" points="6909,11222 6908,11121 36452,11035 36452,11136 9235,11196 "/>
  <path class="fil4" d="M24080 10885c0,0 -356,-76 -502,21 -147,97 -256,257 -164,294 92,36 373,-41 422,-71 49,-30 196,-71 213,-89 17,-18 31,-155 31,-155z"/>
  <path class="fil12" d="M27673 8591c0,0 1487,1069 1487,1548 0,241 -362,895 -1202,989l-125 -230c0,0 709,-562 668,-620 -41,-58 -970,-643 -970,-1014 0,-371 143,-673 143,-673z"/>
  <path class="fil7" d="M24033 16302c0,0 -252,268 -589,311 0,0 -226,2 -226,209l1194 0c0,0 20,-100 28,-279 6,-138 197,-279 197,-279l-605 38z"/>
  <path class="fil7" d="M27389 16415c0,0 -69,200 -344,236 0,0 -184,2 -184,171l974 0c0,0 3,-114 -48,-251 -43,-114 -120,-251 -120,-251l-278 95z"/>
  <path class="fil7" d="M28232 12427c0,0 -958,1809 -803,2093 328,603 425,1839 388,1924 0,0 -248,192 -590,101 0,0 -895,-1871 -875,-2481 28,-839 1006,-2135 1006,-2135l874 498z"/>
  <path class="fil4" d="M27833 8702c0,0 -114,430 -505,457 0,0 -152,-138 -213,-265 -7,-16 -15,-31 -22,-45 -69,-142 -112,-220 -112,-220 0,0 0,0 0,0 12,-13 407,-445 415,-429 173,390 437,501 437,501z"/>
  <path class="fil3" d="M27391 8317c-6,110 -87,358 -298,533 -69,-142 -112,-220 -112,-220 0,0 0,0 0,0 12,-10 411,-346 409,-313z"/>
  <path class="fil4" d="M26872 8664c0,0 612,-130 525,-510 -87,-380 -67,-653 -461,-585 -394,67 -437,229 -439,363 -2,134 213,756 375,732z"/>
  <path class="fil6" d="M26445 12201c0,0 -1655,2972 -2575,4130 0,0 266,223 690,94 0,0 1379,-1117 1771,-1750 392,-634 1263,-1714 1841,-2152l-1727 -322z"/>
  <path class="fil10" d="M28603 10949c0,0 -88,1404 -371,1576 -325,198 -1981,-74 -1876,-265 49,-90 141,-266 215,-532 83,-298 143,-708 97,-1235 -16,-186 -17,-376 -2,-554 28,-343 112,-646 246,-810 204,-248 761,-539 761,-539 0,0 995,412 930,2358z"/>
  <path class="fil12" d="M26571 11728c83,-298 143,-708 97,-1235 -16,-186 -17,-376 -2,-554 117,-178 284,-289 520,-279 0,0 427,1250 -615,2067z"/>
  <path class="fil10" d="M27079 8992c0,0 -946,888 -1455,1251 0,0 -1597,542 -1639,598 0,0 -9,138 62,225 0,0 1573,-127 1848,-229 275,-102 1369,-699 1461,-824 92,-125 181,-1108 -277,-1022z"/>
  <path class="fil6" d="M27515 7385c5,-7 17,-15 46,-20 0,0 -25,-12 -57,-8 -12,-40 -44,-110 -116,-118 0,0 40,15 51,58 -93,-73 -274,-109 -748,-3 -624,140 -358,521 -269,558 89,37 275,-126 429,-135 154,-9 215,210 271,233 56,23 28,-28 93,-70 65,-42 89,75 79,154 -9,79 101,167 101,167 0,0 0,0 82,-120 82,-120 110,-582 52,-672 -5,-8 -10,-16 -15,-24z"/>
  <path class="fil6" d="M42630 15661c-359,0 -680,-76 -960,-228 -345,-186 -559,-454 -678,-646 -123,-198 -172,-355 -178,-376 -313,-831 -737,-1520 -1260,-2048 -418,-422 -901,-743 -1434,-954 -907,-360 -1654,-275 -1662,-274l-12 -100c8,-1 198,-23 505,0 282,22 720,88 1207,280 546,217 1040,545 1469,977 534,539 966,1240 1284,2085l1 4c0,2 46,159 169,356 113,181 315,433 639,607 482,260 1086,225 1809,9 40,-12 81,12 91,53l0 0c12,48 -16,96 -63,110 -332,96 -641,144 -926,144z"/>
  <path class="fil10" d="M21712 11480c-32,-79 -124,-206 -173,-272 7,-1 13,-3 16,-6 21,-17 88,-120 79,-134 -9,-13 -93,-73 -126,-55 0,0 -122,38 -54,182 -62,22 -162,73 -157,169 7,138 0,216 0,216 0,0 111,-9 152,-143 30,-97 44,-186 49,-229 7,1 13,1 20,1 9,47 16,132 -11,243 -44,176 180,331 184,414 0,0 65,-276 21,-386z"/>
  <path class="fil7" d="M15166 16117c0,0 252,189 637,89 0,0 311,-71 379,84 0,0 -477,242 -598,308 -91,50 -186,129 -253,190 -53,48 -136,42 -181,-14 -21,-26 -45,-57 -71,-92 -73,-100 -245,-421 -245,-421l331 -144z"/>
  <path class="fil6" d="M15314 16021c0,0 -153,353 -507,288 0,0 -722,-596 -1217,-1215 -161,-201 -298,-405 -378,-591 -328,-760 -1215,-1894 -1778,-2469l1410 -510c0,0 452,908 1052,2024 433,804 943,1715 1418,2473z"/>
  <path class="fil7" d="M13895 13548l-306 1546c-161,-201 -298,-405 -378,-591 -328,-760 -1215,-1894 -1778,-2469l1410 -510c0,0 452,908 1052,2024z"/>
  <path class="fil14" d="M13995 10705l112 91c0,0 307,-110 376,255 0,0 18,156 -80,156 -98,0 -58,-17 -197,-13 -139,4 -255,-69 -276,-183l-67 -96 131 -210z"/>
  <path class="fil9" d="M13982 10900c90,-94 82,-163 82,-163 0,0 -1037,-849 -1142,-918 -72,-47 -835,-724 -1192,-1137 -177,-205 -396,-125 -647,-53l-207 59c-250,72 -314,421 -110,590 577,478 1536,1015 1715,1128 446,280 1318,613 1318,613 0,0 106,-39 183,-120z"/>
  <path class="fil7" d="M12743 16322c0,0 -15,282 326,320 0,0 195,1 196,180l-993 3c0,0 -29,-72 -36,-227 -5,-119 115,-430 115,-430l392 155z"/>
  <path class="fil6" d="M12381 11524c0,0 628,690 1027,1933 217,676 -398,2377 -517,2968 0,0 -412,35 -694,-74 0,0 -21,-1220 143,-2161 92,-526 -827,-1126 -1228,-2077 -273,-647 59,-636 468,-652l802 63z"/>
  <path class="fil14" d="M11359 8293c-11,-261 -41,-410 -41,-410l-569 -289c132,535 -159,867 -159,867 0,0 715,182 1065,-15 0,0 -117,-98 -296,-153z"/>
  <path class="fil15" d="M11497 7794c0,0 -521,374 -748,46 -228,-328 -448,-500 -125,-753 323,-252 475,-173 578,-82 103,91 426,683 296,789z"/>
  <path class="fil16" d="M12937 11488c0,61 -71,91 -86,94 -141,26 -534,179 -889,214 -298,31 -576,2 -880,-60 -40,-8 -135,-34 -142,-72 -8,-42 -1174,-2377 -268,-3380 21,-24 200,19 364,58 151,36 290,16 414,-34l153 81c188,105 545,478 587,771 21,149 106,259 131,390 9,48 18,96 28,142 19,90 38,177 57,258 53,221 110,412 165,577 59,175 116,320 168,442 67,158 123,276 159,366 25,64 39,113 39,154z"/>
  <path class="fil9" d="M12898 11335c-1646,-775 -2216,-2264 -2216,-2264 0,0 1337,493 1667,622 19,90 38,177 57,258 53,221 110,412 165,577 59,175 116,320 168,442 67,158 123,276 159,366z"/>
  <path class="fil15" d="M13861 10885l142 52c0,0 285,-201 462,126 0,0 64,143 -38,174 -101,31 -65,2 -207,49 -143,48 -283,13 -337,-89l-97 -71 74 -242z"/>
  <path class="fil16" d="M13978 11086c53,-137 77,-199 77,-199 0,0 -1075,-876 -1184,-951 -75,-51 -817,-606 -1180,-1039 -180,-215 -463,-313 -737,-255l-226 47c-272,57 -361,402 -150,583 595,510 1599,1102 1786,1225 465,306 1492,734 1492,734 0,0 80,-36 121,-144z"/>
  <path class="fil7" d="M11256 6709c-19,-126 -61,-215 -61,-215 0,0 -33,135 -280,117 -247,-19 -639,24 -770,306 -8,18 -16,36 -22,55 -24,-62 -29,-156 -29,-156 -47,121 0,273 0,273l0 0c-1,4 -1,9 -2,13 -55,46 -100,190 -100,190 16,-40 57,-66 92,-82 -1,219 88,434 244,498 228,93 226,22 456,174 0,0 62,-76 20,-128 -42,-51 -201,-126 -112,-201 89,-75 121,9 154,-42 33,-51 -131,-201 79,-341 210,-140 350,-336 331,-462z"/>
  <path class="fil7" d="M3424 15421c-56,-190 -1221,-1002 -474,-2126 424,-638 939,-1650 1527,-2016 736,-458 1496,-142 2432,-157l0 101c-917,14 -1629,-332 -2349,116 -577,359 -1137,1358 -1521,2004 -695,1170 539,1830 532,2053 -3,103 -135,63 -146,25z"/>
  <path class="fil7" d="M5676 16404c0,0 71,205 353,242 0,0 189,2 189,175l-1000 0c0,0 -3,-117 49,-257 44,-117 123,-257 123,-257l285 98z"/>
  <path class="fil10" d="M6556 14819c-263,779 -713,1719 -713,1719 -351,93 -606,-104 -606,-104 -38,-88 61,-1356 398,-1976 53,-97 -21,-367 -142,-684 -244,-637 -683,-1465 -683,-1465l898 -511c0,0 1004,1330 1033,2192 6,188 -72,493 -185,828z"/>
  <path class="fil4" d="M8848 10928c0,0 310,-57 427,51 117,108 211,249 57,256 -160,8 -258,-10 -297,-43 -39,-33 -161,-84 -174,-104 -13,-20 -13,-160 -13,-160z"/>
  <path class="fil17" d="M5385 8372c0,0 -1526,1156 -1526,1589 0,248 430,845 1438,1058l177 -250c0,0 -882,-666 -840,-726 42,-60 897,-600 897,-980 0,-381 -146,-691 -146,-691z"/>
  <path class="fil7" d="M9122 16289c0,0 258,275 605,319 0,0 232,2 232,215l-1226 0c0,0 -21,-103 -28,-286 -6,-141 -203,-287 -203,-287l621 39z"/>
  <path class="fil12" d="M6556 14819l-1063 -1044c-244,-637 -683,-1465 -683,-1465l898 -511c0,0 1004,1330 1033,2192 6,188 -72,493 -185,828z"/>
  <path class="fil4" d="M5221 8486c0,0 117,441 519,469 0,0 156,-142 218,-272 8,-16 15,-31 22,-46 71,-146 115,-225 115,-225 0,0 0,0 0,0 -12,-14 -418,-457 -426,-440 -178,400 -448,514 -448,514z"/>
  <path class="fil3" d="M5675 8090c6,113 90,367 305,547 71,-146 115,-225 115,-225 0,0 0,0 0,0 -12,-10 -422,-355 -420,-322z"/>
  <path class="fil4" d="M6207 8447c0,0 -628,-134 -539,-524 89,-390 68,-670 473,-601 405,69 448,235 450,373 2,137 -219,776 -385,752z"/>
  <path class="fil10" d="M6646 12078c0,0 1699,3051 2643,4240 0,0 -273,228 -709,97 0,0 -1415,-1146 -1818,-1797 -403,-651 -1297,-1760 -1890,-2209l1773 -331z"/>
  <path class="fil18" d="M4431 10793c0,0 90,1441 380,1618 334,204 2033,-76 1926,-272 -51,-92 -145,-273 -221,-547 -85,-306 -147,-726 -99,-1267 17,-191 17,-386 2,-569 -29,-352 -115,-664 -253,-831 -209,-255 -781,-553 -781,-553 0,0 -1022,423 -954,2421z"/>
  <path class="fil17" d="M6516 11593c-85,-306 -147,-726 -99,-1267 17,-191 17,-386 2,-569 -120,-182 -291,-297 -534,-286 0,0 -438,1283 631,2122z"/>
  <path class="fil18" d="M5994 8772c0,0 898,983 1391,1395 0,0 1592,680 1631,741 0,0 -1,142 -81,226 0,0 -1600,-253 -1873,-379 -274,-126 -1346,-823 -1431,-958 -85,-135 -99,-1148 363,-1024z"/>
  <path class="fil13" d="M5642 8029c-10,1 -149,-19 -163,-587 -2,-89 47,-257 196,-355 149,-98 499,-65 770,5 271,70 264,238 257,406 -8,176 112,381 112,381 -271,19 -448,-274 -551,-288 -103,-14 -201,112 -229,154 -28,42 -56,75 -149,-19 -93,-93 -126,135 -126,182 0,0 -33,109 -117,120z"/>
  <path class="fil4" d="M19533 10956c-28,-8 -151,-3 -430,-48 0,0 -17,-2 -103,-59 0,0 0,0 0,0 -263,-183 -540,-385 -860,-574 -224,-133 -600,-501 -951,-793 -50,-41 -99,-81 -147,-119 -53,-41 -100,-78 -138,-108 -82,-64 -196,-66 -281,-6 -90,64 -186,167 -199,320 -4,47 23,103 73,165 64,78 151,159 251,238 316,251 765,498 1047,668 326,196 805,347 1034,413 0,0 0,0 0,0 0,0 122,33 130,39 9,6 193,72 271,110 78,38 355,70 446,-56 90,-126 -86,-173 -144,-189z"/>
  <path class="fil6" d="M17201 9478c0,0 -110,324 -454,505 -103,-82 -193,-165 -259,-245 -52,-63 -80,-121 -76,-169 14,-172 131,-282 230,-346 77,-50 178,-45 250,12 42,33 96,75 157,123 50,39 100,80 151,122z"/>
  <path class="fil4" d="M31076 10918c-10,3 -183,41 -302,23 -119,-18 -303,123 -314,163 -11,39 36,130 101,130 65,0 113,-30 134,-62 21,-32 126,-5 184,-43 58,-38 197,-211 197,-211z"/>
  <path class="fil4" d="M33677 10063c-50,67 -271,239 -532,422l0 0c-360,253 -796,526 -965,570 -293,76 -1485,117 -1485,21 0,-89 1095,-346 1387,-411 134,-30 417,-286 684,-557 318,-321 616,-662 616,-662 209,-104 621,181 295,617z"/>
  <path class="fil8" d="M33677 10063c-50,67 -271,239 -532,422l0 0c-277,-89 -356,-276 -379,-377 318,-321 616,-662 616,-662 209,-104 621,181 295,617z"/>
  <path class="fil3" d="M36917 10878c0,0 -352,-69 -495,29 -143,98 -248,258 -157,292 92,34 367,-46 415,-76 48,-30 192,-73 208,-92 16,-18 28,-153 28,-153z"/>
  <path class="fil17" d="M39814 8966c0,0 -1104,902 -1600,1268 0,0 -1565,560 -1607,616 0,0 -7,136 65,221 0,0 1549,-150 1818,-256 270,-105 1338,-712 1427,-836 89,-124 346,-1106 -104,-1014z"/>
  <path class="fil7" d="M35608 16310c0,0 -248,264 -581,307 0,0 -223,2 -223,206l1178 0c0,0 20,-98 27,-275 6,-136 195,-275 195,-275l-597 37z"/>
  <path class="fil6" d="M40125 12694c-569,431 -1796,1537 -2182,2161 -85,138 -222,292 -382,448 -566,550 -1432,1127 -1432,1127 -418,126 -681,-93 -681,-93 636,-814 1318,-1633 1899,-2315 830,-974 1456,-1669 1456,-1669l1323 341z"/>
  <path class="fil7" d="M40125 12694c-569,431 -1796,1537 -2182,2161 -85,138 -222,292 -382,448l-214 -1282c830,-974 1456,-1669 1456,-1669l1323 341z"/>
  <path class="fil7" d="M38715 16336c0,0 -82,240 -412,282 0,0 -221,2 -221,204l1167 0c0,0 3,-136 -58,-300 -51,-137 -144,-300 -144,-300l-333 114z"/>
  <path class="fil6" d="M39177 12450c0,0 -1531,1299 -1485,1754 61,595 903,2303 903,2303 0,0 147,86 517,-126 0,0 -30,-1305 -420,-2081 -81,-161 1537,-828 1722,-1283 185,-456 229,-712 0,-717 -229,-4 -1236,150 -1236,150z"/>
  <path class="fil4" d="M36765 11042c0,0 -407,-157 -534,-105 -160,67 -258,183 -175,233 84,51 277,96 431,68 55,-10 202,-37 221,-52 19,-15 56,-145 56,-145z"/>
  <path class="fil4" d="M39805 8771c0,0 -74,432 -456,493 0,0 -162,-122 -233,-241 -9,-15 -17,-29 -25,-42 -80,-133 -129,-206 -129,-206 0,0 0,0 0,0 11,-14 360,-473 369,-458 205,367 473,453 473,453z"/>
  <path class="fil3" d="M39336 8432c4,108 -54,359 -245,550 -80,-133 -129,-206 -129,-206 0,0 0,0 0,0 11,-11 373,-376 374,-344z"/>
  <path class="fil4" d="M38806 8839c0,0 612,-80 556,-460 -56,-380 -15,-647 -408,-611 -393,35 -447,191 -460,323 -12,131 151,760 311,749z"/>
  <path class="fil18" d="M40759 10910c0,0 38,1386 -225,1581 -302,224 -1952,102 -1866,-94 38,-86 105,-248 154,-486 4,-18 7,-37 11,-56 55,-300 78,-707 -14,-1221 -6,-34 -12,-67 -16,-101 -22,-149 -34,-299 -35,-443 -3,-340 53,-645 170,-817 178,-262 700,-596 700,-596 0,0 1014,317 1122,2234z"/>
  <path class="fil17" d="M39602 9679c0,0 82,1530 -780,2232 4,-18 7,-37 11,-56 55,-300 78,-707 -14,-1221 -6,-34 -12,-67 -16,-101 234,-455 534,-839 799,-854z"/>
  <path class="fil18" d="M39672 9067c0,0 -339,31 -1455,1301 0,0 -1565,560 -1607,616 0,0 -7,136 65,221 0,0 1548,-150 1818,-256 270,-105 1339,-712 1427,-836 89,-124 202,-1139 -248,-1046z"/>
  <path class="fil6" d="M39394 8430c0,0 -70,-7 -65,-103 5,-96 -3,-220 -79,-192 -76,28 -76,90 -110,56 -34,-34 -44,-187 -275,-183 -231,4 -320,90 -430,49 -110,-40 -126,-202 -126,-202 0,0 34,56 81,72 0,0 -194,-233 3,-414 197,-180 414,-84 534,-84 265,0 436,5 533,173 97,168 91,652 -68,829z"/>
 </g>
</svg>
